<?xml version="1.0" encoding="utf-8"?>
<!-- Generator: Adobe Illustrator 24.0.0, SVG Export Plug-In . SVG Version: 6.00 Build 0)  -->
<svg version="1.1" id="Layer_1" xmlns="http://www.w3.org/2000/svg" xmlns:xlink="http://www.w3.org/1999/xlink" x="0px" y="0px"
	 viewBox="0 0 24 24" style="enable-background:new 0 0 24 24;" xml:space="preserve">
<style type="text/css">
	.st0{fill:#B3B3B3;}
</style>
<g>
	<path class="st0" d="M0,8.36c0-0.55,0-1.09,0-1.64c0.01,0,0.01,0.01,0.01,0.01c0.01,0,0.01-0.01,0.01-0.02
		C0.05,6.54,0.07,6.37,0.1,6.2c0.24-1.33,0.83-2.47,1.82-3.4C2.92,1.85,4.13,1.33,5.5,1.18c0.03,0,0.07,0.02,0.08-0.04
		c0.41,0,0.81,0,1.22,0c0,0,0,0.01-0.01,0.01c0,0,0,0.01,0,0.01c0.02,0.02,0.06,0.02,0.09,0.02c0.37,0.04,0.73,0.11,1.08,0.22
		c1.33,0.4,2.41,1.17,3.3,2.23c0.26,0.3,0.49,0.63,0.69,0.97c0.04,0.06,0.06,0.06,0.09,0c0.05-0.09,0.1-0.17,0.16-0.25
		c1.2-1.75,2.78-2.9,4.94-3.16c0.02,0,0.06,0.01,0.06-0.03c0.41,0,0.81,0,1.22,0c0,0.01-0.01,0.01-0.01,0.02
		c0.01,0,0.02,0.01,0.03,0.01c0.24,0.03,0.48,0.06,0.71,0.11c1.8,0.4,3.17,1.38,4.08,2.99c0.42,0.74,0.65,1.53,0.74,2.37
		c0,0.03-0.02,0.07,0.04,0.07c0,0.54,0,1.08,0,1.62c0,0-0.01,0-0.01-0.01c0,0-0.01,0-0.01,0c-0.02,0.02-0.02,0.06-0.02,0.09
		c-0.02,0.38-0.06,0.75-0.12,1.12c-0.2,1.28-0.64,2.47-1.35,3.55c-0.56,0.85-1.23,1.6-1.95,2.31c-1.12,1.11-2.33,2.13-3.52,3.16
		c-1.67,1.45-3.33,2.91-4.94,4.44c-0.02,0.02-0.07,0.04-0.06,0.08c-0.01,0-0.03,0-0.04,0c0.01-0.04-0.03-0.06-0.05-0.08
		c-1.38-1.31-2.8-2.58-4.23-3.83c-1.26-1.09-2.53-2.17-3.75-3.31c-0.78-0.73-1.52-1.5-2.16-2.37c-0.87-1.19-1.41-2.51-1.63-3.97
		C0.1,9.17,0.06,8.8,0.04,8.43C0.03,8.41,0.05,8.36,0,8.36z"/>
</g>
</svg>
