<?xml version="1.0" encoding="utf-8"?>
<!-- Generator: Adobe Illustrator 24.0.0, SVG Export Plug-In . SVG Version: 6.00 Build 0)  -->
<svg version="1.1" id="Layer_1" xmlns="http://www.w3.org/2000/svg" xmlns:xlink="http://www.w3.org/1999/xlink" x="0px" y="0px"
	 viewBox="0 0 24 24" style="enable-background:new 0 0 24 24;" xml:space="preserve">
<style type="text/css">
	.st0{fill:#999999;}
</style>
<path class="st0" d="M20,20.5H4c-0.28,0-0.5-0.22-0.5-0.5V4c0-0.28,0.22-0.5,0.5-0.5h16c0.28,0,0.5,0.22,0.5,0.5v16
	C20.5,20.28,20.28,20.5,20,20.5z M4.5,19.5h15v-15h-15V19.5z"/>
<path class="st0" d="M16.5,12.5h-9C7.22,12.5,7,12.28,7,12s0.22-0.5,0.5-0.5h9c0.28,0,0.5,0.22,0.5,0.5S16.78,12.5,16.5,12.5z"/>
</svg>
