<?xml version="1.0" encoding="utf-8"?>
<!-- Generator: Adobe Illustrator 24.0.0, SVG Export Plug-In . SVG Version: 6.00 Build 0)  -->
<svg version="1.1" id="Layer_1" xmlns="http://www.w3.org/2000/svg" xmlns:xlink="http://www.w3.org/1999/xlink" x="0px" y="0px"
	 viewBox="0 0 140 38" style="enable-background:new 0 0 140 38;" xml:space="preserve">
<style type="text/css">
	.st0{fill:#FFFFFF;}
	.st1{fill:#D5DD26;}
	.st2{fill:none;stroke:#FFFFFF;stroke-width:0.7916;stroke-linecap:round;stroke-miterlimit:10;}
	.st3{opacity:0.3;}
	.st4{fill:none;stroke:#FFFFFF;stroke-width:1.3194;stroke-linecap:round;stroke-miterlimit:10;}
</style>
<g>
	<g>
		<g>
			<path class="st0" d="M44.73,13.27l-3.97-5.71h-0.05v5.71h-3.92V1.66h3.92v4.96h0.05l3.71-4.96h4.48L44.78,7.1l4.38,6.17H44.73z"
				/>
			<path class="st0" d="M54.74,7.74v5.52h-3.97V1.66h3.97v4.2h2.5c3.1,0,4.79,1.56,4.79,4.43v2.98h-3.97V9.5
				c0-1.16-0.63-1.76-1.88-1.76H54.74z"/>
			<path class="st0" d="M64.51,13.27V1.66h3.97v11.6H64.51z"/>
			<path class="st0" d="M84.4,13.27V1.66h3.97v11.6H84.4z"/>
			<path class="st0" d="M70.96,1.66v11.6h6.47c3.1,0,4.79-1.56,4.79-4.43V6.09c0-2.86-1.68-4.43-4.79-4.43H70.96z M74.93,11.38V3.54
				h1.44c1.25,0,1.88,0.6,1.88,1.76v4.33c0,1.16-0.63,1.76-1.88,1.76H74.93z"/>
			<path class="st0" d="M62.36,2.51c0,1.28-1.04,2.32-2.32,2.32c-1.28,0-2.32-1.04-2.32-2.32c0-1.28,1.04-2.31,2.32-2.31
				C61.32,0.19,62.36,1.23,62.36,2.51z"/>
		</g>
		<g>
			<path class="st1" d="M36.21,23.75c0-0.44,0.1-0.84,0.27-1.2h-1.11v-2.48h4.04v-1.51h3.68v1.51h4v2.48h-1.12
				c0.17,0.36,0.27,0.76,0.27,1.2v0.86c0,2.4-2.02,3.87-5.01,3.87c-2.99,0-5.01-1.47-5.01-3.87V23.75z M48.75,30.58v-1.32h3.62v7.21
				H36.73v-7.21h3.62v1.32H48.75z M42.96,23.71c0-0.88-0.71-1.39-1.73-1.39s-1.73,0.51-1.73,1.39v0.72c0,0.88,0.53,1.47,1.73,1.47
				c1.03,0,1.73-0.59,1.73-1.47V23.71z M40.35,34.1h8.41v-1.28h-8.41V34.1z M52.26,21.9h1.72v3.13h-1.72v3.53h-3.62v-9.87h3.62V21.9
				z"/>
			<path class="st1" d="M55.03,28.61v-3.05c2.17-0.74,3.37-2.4,3.41-5.22v-1.41H62v1.98c0,0.53-0.06,1.07-0.15,1.56
				c2.65,0.42,4.42,2.52,4.38,5.74h-3.47c0-1.41-0.76-2.69-1.98-3.05C59.58,26.99,57.56,28.25,55.03,28.61z M67.89,29.05
				c2.71,0,4.12,1.51,4.12,3.74c0,2.21-1.41,3.74-4.12,3.74h-8.12c-2.74,0-4.12-1.54-4.12-3.74s1.37-3.74,4.12-3.74H67.89z
				 M67.04,33.97c0.84,0,1.3-0.46,1.3-1.18c0-0.74-0.46-1.2-1.3-1.2h-6.4c-0.84,0-1.3,0.46-1.3,1.2c0,0.72,0.46,1.18,1.3,1.18H67.04
				z M68.18,28.46v-4.67h-2.84v-2.97h2.84v-2.13h3.62v9.78H68.18z"/>
			<path class="st1" d="M74.07,29.2v-3.13c2.25-0.76,3.53-2.57,3.56-5.6v-1.45h3.6v2.12c0,0.5-0.04,0.97-0.11,1.45
				c2.74,0.36,4.59,2.63,4.56,6.2h-3.55c0.04-1.54-0.74-3.03-2.02-3.45C78.91,27.37,76.78,28.8,74.07,29.2z M78.72,33.65h12.5v2.82
				H75.04v-6.46h3.68V33.65z M90.86,18.68v13.4h-3.62v-13.4H90.86z"/>
			<path class="st1" d="M93.11,24.44v-1.43c0-2.76,2.21-4.23,5.32-4.23c3.11,0,5.34,1.45,5.34,4.23v1.43c0,2.78-2.23,4.23-5.32,4.23
				C95.34,28.67,93.11,27.22,93.11,24.44z M93.91,32.45v-2.82h15.55v6.84h-3.66v-4.02H93.91z M96.62,24.48
				c0,0.91,0.67,1.56,1.81,1.56c1.14,0,1.83-0.65,1.83-1.56v-1.51c0-0.91-0.69-1.58-1.83-1.56c-1.14,0.02-1.81,0.65-1.81,1.56V24.48
				z M111.07,23.26h-1.62v1.26h1.62v2.84h-1.62v1.49h-3.62V18.68h3.62v1.73h1.62V23.26z"/>
		</g>
		<g>
			<path class="st0" d="M114.95,24.09v-2.5c0-1.9,1.48-2.65,2.96-2.65c0.78,0,1.44,0.14,1.9,0.39l-0.17,1.4
				c-0.44-0.21-0.93-0.31-1.56-0.31c-0.79,0-1.45,0.44-1.45,1.24v2.34c0,0.81,0.66,1.24,1.45,1.24c0.57,0,1.05-0.11,1.66-0.4
				l0.17,1.41c-0.41,0.31-1.26,0.48-2.01,0.48C116.43,26.74,114.95,25.98,114.95,24.09z"/>
			<path class="st0" d="M128.08,26.6h-1.57l-0.39-4.84l-0.97,4.37h-1.73l-0.96-4.32l-0.4,4.79h-1.57l0.72-7.52h1.97l1.11,5.03
				l1.11-5.03h1.97L128.08,26.6z"/>
			<path class="st0" d="M128.63,24.09v-2.5c0-1.9,1.48-2.65,2.96-2.65c0.78,0,1.44,0.14,1.9,0.39l-0.17,1.4
				c-0.44-0.21-0.93-0.31-1.56-0.31c-0.79,0-1.45,0.44-1.45,1.24v2.34c0,0.81,0.66,1.24,1.45,1.24c0.57,0,1.05-0.11,1.66-0.4
				l0.17,1.41c-0.41,0.31-1.26,0.48-2.01,0.48C130.11,26.74,128.63,25.98,128.63,24.09z"/>
			<path class="st0" d="M120.62,33.81c-0.45,0.07-0.92,0.1-1.8,0.1h-0.48c-0.03,1.55-1.34,2.74-2.89,2.8v-1.25
				c0.81-0.17,1.3-0.69,1.31-1.54h-1.81v-1.32h3.87c0.88,0,1.35-0.03,1.8-0.1V33.81z M116.65,32.1c-1.1,0-1.67-0.72-1.67-1.63v-0.03
				c0-0.91,0.57-1.63,1.67-1.63h2.06c1.1,0,1.67,0.72,1.67,1.63v0.03c0,0.91-0.57,1.63-1.67,1.63H116.65z M116.57,30.48
				c0,0.26,0.17,0.48,0.51,0.48h1.22c0.33,0,0.5-0.22,0.5-0.48v-0.03c0-0.26-0.16-0.49-0.5-0.49h-1.22c-0.34,0-0.51,0.23-0.51,0.49
				V30.48z M121.04,28.63h1.63v8h-1.63v-0.94h-2.18v-1.25h2.18V28.63z"/>
			<path class="st0" d="M123.53,35.06h7.89v1.36h-7.89V35.06z M129.09,34.6c0.13-0.58,0.21-1.11,0.25-1.71h-5.52v-1.42h5.56v-0.46
				v-0.69h-5.47v-1.43h7.17v2.14c0,1.55-0.05,2.65-0.32,3.58H129.09z"/>
			<path class="st0" d="M138.37,32.14H140v1.11h-7.89v-1.11h1.64v-0.6h1.54v0.6h1.55v-0.6h1.54V32.14z M137.96,34.16v-0.55h1.72
				v3.03h-7.26v-3.03h1.72v0.55H137.96z M132.43,31.31v-1.16c1.66,0.03,2.64-0.63,2.82-1.57h1.6c-0.02,0.26-0.07,0.5-0.15,0.72
				c1.42-0.06,2.81,0.58,3.11,2.01h-1.61c-0.33-0.75-1.27-1.09-2.29-0.94C135.11,31.02,133.88,31.36,132.43,31.31z M134.15,35.61
				h3.81v-0.48h-3.81V35.61z"/>
		</g>
	</g>
	<g>
		<g>
			<path class="st2" d="M16.28,37.32c-4.25-1.99-6.99-6.3-6.99-10.99v-1.72c0-4.69,2.74-9,6.99-10.99l5.19-2.43
				C24.83,9.63,27,6.22,27,2.52V1.66"/>
			<path class="st2" d="M29.55,26.33v-1.72c0-4.71-2.73-8.99-6.99-10.99l-0.13-0.06"/>
			<path class="st2" d="M29.55,1.66v0.86c0,4.71-2.73,8.99-6.99,10.99l-5.19,2.43c-3.35,1.57-5.52,4.97-5.52,8.68v1.72
				c0,6.62,4.68,10.99,7.9,10.99h2.47c2.54,0,4.88-1.35,6.16-3.54l0,0c0.77-1.31,1.17-2.81,1.17-4.33v-4.84
				c0-3.06-2.48-5.55-5.55-5.55h0c-3.06,0-5.55,2.48-5.55,5.55v7.16c0,1.08,0.31,2.09,0.84,2.94"/>
			<path class="st2" d="M24,21.16c1.9,0,3.45,1.55,3.45,3.45"/>
			<path class="st2" d="M21.02,22.87c0.23-0.4,0.54-0.74,0.91-1.02"/>
			<path class="st2" d="M16.41,13.57l-0.13-0.06c-4.25-1.99-6.99-6.3-6.99-10.99V1.66"/>
			<path class="st2" d="M25.33,19.23c-0.95-1.4-2.27-2.55-3.85-3.29l-2.06-0.96"/>
			<path class="st2" d="M11.84,1.66v0.86c0,3.7,2.17,7.11,5.52,8.68l2.06,0.96"/>
			<g class="st3">
				<line class="st4" x1="16.41" y1="18.37" x2="20.39" y2="18.37"/>
				<line class="st4" x1="14.15" y1="21.53" x2="17.42" y2="21.53"/>
				<line class="st4" x1="13.59" y1="24.69" x2="16.71" y2="24.69"/>
				<line class="st4" x1="13.67" y1="27.85" x2="16.71" y2="27.85"/>
				<line class="st4" x1="14.43" y1="31.01" x2="16.71" y2="31.01"/>
				<line class="st4" x1="16.56" y1="34.16" x2="17.25" y2="34.16"/>
				<line class="st4" x1="13.59" y1="2.58" x2="25.25" y2="2.58"/>
				<line class="st4" x1="14.15" y1="5.74" x2="24.69" y2="5.74"/>
				<line class="st4" x1="16.83" y1="8.9" x2="22.09" y2="8.9"/>
			</g>
			<line class="st2" x1="18.55" y1="27.85" x2="29.55" y2="27.85"/>
		</g>
		<path class="st0" d="M6.42,11.24C5.04,9.86,2.87,9.77,1.4,10.97l4.12,4.12c0.15,0.15,0.15,0.41,0,0.56
			c-0.08,0.08-0.18,0.12-0.28,0.12s-0.2-0.04-0.28-0.12l-4.12-4.12c-1.2,1.48-1.11,3.65,0.26,5.02c1.47,1.47,3.85,1.47,5.32,0
			C7.88,15.08,7.88,12.7,6.42,11.24z"/>
	</g>
</g>
</svg>
