<?xml version="1.0" encoding="utf-8"?>
<!-- Generator: Adobe Illustrator 24.0.0, SVG Export Plug-In . SVG Version: 6.00 Build 0)  -->
<svg version="1.1" id="Layer_1" xmlns="http://www.w3.org/2000/svg" xmlns:xlink="http://www.w3.org/1999/xlink" x="0px" y="0px"
	 viewBox="0 0 24 24" style="enable-background:new 0 0 24 24;" xml:space="preserve">
<style type="text/css">
	.st0{fill:#333333;}
	.st1{fill:#C9C9C9;}
	.st2{fill:#949494;}
	.st3{fill:#5E5E5E;}
	.st4{fill:#414141;}
	.st5{fill:#DBDBDB;}
	.st6{fill:#A9A9A9;}
	.st7{fill:#707070;}
	.st8{fill:#4D4D4D;}
	.st9{fill:#EDEDED;}
	.st10{fill:#B8B8B8;}
	.st11{fill:#838383;}
</style>
<path class="st0" d="M12,6.75c-0.41,0-0.75-0.34-0.75-0.75V1.53c0-0.41,0.34-0.75,0.75-0.75s0.75,0.34,0.75,0.75V6
	C12.75,6.41,12.41,6.75,12,6.75z"/>
<path class="st1" d="M22.47,12.75H18c-0.41,0-0.75-0.34-0.75-0.75s0.34-0.75,0.75-0.75h4.47c0.41,0,0.75,0.34,0.75,0.75
	S22.88,12.75,22.47,12.75z"/>
<path class="st2" d="M12,23.22c-0.41,0-0.75-0.34-0.75-0.75V18c0-0.41,0.34-0.75,0.75-0.75s0.75,0.34,0.75,0.75v4.47
	C12.75,22.88,12.41,23.22,12,23.22z"/>
<path class="st3" d="M6,12.75H1.53c-0.41,0-0.75-0.34-0.75-0.75s0.34-0.75,0.75-0.75H6c0.41,0,0.75,0.34,0.75,0.75
	S6.41,12.75,6,12.75z"/>
<path class="st4" d="M9,7.55c-0.26,0-0.51-0.13-0.65-0.38L6.12,3.31C5.91,2.95,6.03,2.49,6.39,2.28C6.75,2.08,7.21,2.2,7.41,2.56
	l2.24,3.87c0.21,0.36,0.08,0.82-0.27,1.02C9.26,7.52,9.13,7.55,9,7.55z"/>
<path class="st5" d="M17.2,9.75c-0.26,0-0.51-0.13-0.65-0.38c-0.21-0.36-0.08-0.82,0.27-1.02l3.87-2.24
	c0.36-0.21,0.82-0.08,1.02,0.27c0.21,0.36,0.08,0.82-0.27,1.02l-3.87,2.24C17.45,9.72,17.32,9.75,17.2,9.75z"/>
<path class="st6" d="M17.24,21.82c-0.26,0-0.51-0.13-0.65-0.38l-2.24-3.87c-0.21-0.36-0.08-0.82,0.27-1.02
	c0.36-0.21,0.82-0.08,1.02,0.27l2.24,3.87c0.21,0.36,0.08,0.82-0.27,1.02C17.49,21.79,17.36,21.82,17.24,21.82z"/>
<path class="st7" d="M2.93,17.99c-0.26,0-0.51-0.13-0.65-0.38c-0.21-0.36-0.08-0.82,0.27-1.02l3.87-2.24
	c0.36-0.21,0.82-0.08,1.02,0.27c0.21,0.36,0.08,0.82-0.27,1.02l-3.87,2.24C3.19,17.95,3.06,17.99,2.93,17.99z"/>
<path class="st8" d="M6.8,9.75c-0.13,0-0.26-0.03-0.37-0.1L2.56,7.41C2.2,7.21,2.08,6.75,2.28,6.39c0.21-0.36,0.67-0.48,1.02-0.27
	l3.87,2.24c0.36,0.21,0.48,0.67,0.27,1.02C7.31,9.62,7.06,9.75,6.8,9.75z"/>
<path class="st9" d="M15,7.55c-0.13,0-0.26-0.03-0.37-0.1c-0.36-0.21-0.48-0.67-0.27-1.02l2.24-3.87c0.21-0.36,0.67-0.48,1.02-0.27
	c0.36,0.21,0.48,0.67,0.27,1.02l-2.24,3.87C15.51,7.42,15.26,7.55,15,7.55z"/>
<path class="st10" d="M21.07,17.99c-0.13,0-0.26-0.03-0.37-0.1l-3.87-2.24c-0.36-0.21-0.48-0.67-0.27-1.02
	c0.21-0.36,0.66-0.48,1.02-0.27l3.87,2.24c0.36,0.21,0.48,0.67,0.27,1.02C21.58,17.85,21.33,17.99,21.07,17.99z"/>
<path class="st11" d="M6.76,21.82c-0.13,0-0.26-0.03-0.37-0.1c-0.36-0.21-0.48-0.67-0.27-1.02l2.24-3.87
	c0.21-0.36,0.67-0.48,1.02-0.27s0.48,0.67,0.27,1.02l-2.24,3.87C7.28,21.68,7.02,21.82,6.76,21.82z"/>
</svg>
